<?xml version="1.0" encoding="UTF-8" standalone="no"?>
<!-- Created with Inkscape (http://www.inkscape.org/) -->
<svg
   xmlns:dc="http://purl.org/dc/elements/1.1/"
   xmlns:cc="http://creativecommons.org/ns#"
   xmlns:rdf="http://www.w3.org/1999/02/22-rdf-syntax-ns#"
   xmlns:svg="http://www.w3.org/2000/svg"
   xmlns="http://www.w3.org/2000/svg"
   xmlns:xlink="http://www.w3.org/1999/xlink"
   xmlns:sodipodi="http://sodipodi.sourceforge.net/DTD/sodipodi-0.dtd"
   xmlns:inkscape="http://www.inkscape.org/namespaces/inkscape"
   width="210mm"
   height="297mm"
   id="svg2"
   sodipodi:version="0.32"
   inkscape:version="0.46"
   sodipodi:docname="headings.svg"
   inkscape:output_extension="org.inkscape.output.svg.inkscape">
  <defs
     id="defs4">
    <linearGradient
       id="linearGradient3749">
      <stop
         id="stop3751"
         offset="0"
         style="stop-color:#5f6e48;stop-opacity:1;" />
      <stop
         id="stop3753"
         offset="1"
         style="stop-color:#ffffff;stop-opacity:1;" />
    </linearGradient>
    <linearGradient
       id="linearGradient3579">
      <stop
         id="stop3581"
         offset="0"
         style="stop-color:#5c3166;stop-opacity:1;" />
      <stop
         id="stop3583"
         offset="1"
         style="stop-color:#ffffff;stop-opacity:1;" />
    </linearGradient>
    <linearGradient
       id="linearGradient3411">
      <stop
         style="stop-color:#3c274f;stop-opacity:1;"
         offset="0"
         id="stop3413" />
      <stop
         style="stop-color:#ffffff;stop-opacity:1;"
         offset="1"
         id="stop3415" />
    </linearGradient>
    <linearGradient
       id="linearGradient3295">
      <stop
         id="stop3297"
         offset="0"
         style="stop-color:#8c3e54;stop-opacity:1;" />
      <stop
         id="stop3299"
         offset="1"
         style="stop-color:#ffffff;stop-opacity:1;" />
    </linearGradient>
    <linearGradient
       id="linearGradient2403">
      <stop
         style="stop-color:#2e4f3d;stop-opacity:1;"
         offset="0"
         id="stop2405" />
      <stop
         style="stop-color:#ffffff;stop-opacity:1;"
         offset="1"
         id="stop2407" />
    </linearGradient>
    <inkscape:perspective
       sodipodi:type="inkscape:persp3d"
       inkscape:vp_x="0 : 526.18109 : 1"
       inkscape:vp_y="0 : 1000 : 0"
       inkscape:vp_z="744.09448 : 526.18109 : 1"
       inkscape:persp3d-origin="372.04724 : 350.78739 : 1"
       id="perspective10" />
    <linearGradient
       inkscape:collect="always"
       xlink:href="#linearGradient3295"
       id="linearGradient3608"
       gradientUnits="userSpaceOnUse"
       x1="318.70312"
       y1="28.572577"
       x2="407.09146"
       y2="162.92287"
       gradientTransform="translate(0,-7.6293945e-6)" />
    <linearGradient
       inkscape:collect="always"
       xlink:href="#linearGradient3749"
       id="linearGradient3747"
       gradientUnits="userSpaceOnUse"
       gradientTransform="translate(-0.125,352.20004)"
       x1="318.70312"
       y1="28.572577"
       x2="407.09146"
       y2="162.92287" />
    <linearGradient
       inkscape:collect="always"
       xlink:href="#linearGradient2403"
       id="linearGradient3426"
       gradientUnits="userSpaceOnUse"
       gradientTransform="translate(0,275.83251)"
       x1="318.70312"
       y1="28.572577"
       x2="407.09146"
       y2="162.92287" />
    <linearGradient
       inkscape:collect="always"
       xlink:href="#linearGradient3411"
       id="linearGradient3428"
       gradientUnits="userSpaceOnUse"
       gradientTransform="translate(0,183.88742)"
       x1="318.70312"
       y1="28.572577"
       x2="407.09146"
       y2="162.92287" />
    <linearGradient
       inkscape:collect="always"
       xlink:href="#linearGradient3579"
       id="linearGradient3430"
       gradientUnits="userSpaceOnUse"
       gradientTransform="translate(0,91.942327)"
       x1="318.70312"
       y1="28.572577"
       x2="407.09146"
       y2="162.92287" />
    <linearGradient
       inkscape:collect="always"
       xlink:href="#linearGradient3579"
       id="linearGradient3434"
       gradientUnits="userSpaceOnUse"
       gradientTransform="matrix(1,0,0,1.0130609,-0.96875,78.987731)"
       x1="318.70312"
       y1="28.572577"
       x2="407.09146"
       y2="162.92287" />
    <linearGradient
       inkscape:collect="always"
       xlink:href="#linearGradient3411"
       id="linearGradient3449"
       gradientUnits="userSpaceOnUse"
       gradientTransform="matrix(1,0,0,1.0130609,-0.96875,168.98767)"
       x1="318.70312"
       y1="28.572577"
       x2="407.09146"
       y2="162.92287" />
    <linearGradient
       inkscape:collect="always"
       xlink:href="#linearGradient2403"
       id="linearGradient3464"
       gradientUnits="userSpaceOnUse"
       gradientTransform="matrix(1,0,0,1.0130609,-0.96875,258.50263)"
       x1="318.70312"
       y1="28.572577"
       x2="407.09146"
       y2="162.92287" />
    <linearGradient
       inkscape:collect="always"
       xlink:href="#linearGradient2403"
       id="linearGradient3470"
       gradientUnits="userSpaceOnUse"
       gradientTransform="matrix(1,0,0,1.0130609,-0.96875,258.50263)"
       x1="318.70312"
       y1="28.572577"
       x2="407.09146"
       y2="162.92287" />
    <linearGradient
       inkscape:collect="always"
       xlink:href="#linearGradient2403"
       id="linearGradient3474"
       gradientUnits="userSpaceOnUse"
       gradientTransform="matrix(1,0,0,1.0130609,-35.48128,258.50263)"
       x1="318.70312"
       y1="28.572577"
       x2="407.09146"
       y2="162.92287" />
    <linearGradient
       inkscape:collect="always"
       xlink:href="#linearGradient3411"
       id="linearGradient3476"
       gradientUnits="userSpaceOnUse"
       gradientTransform="matrix(1,0,0,1.0130609,-0.96875,168.98767)"
       x1="318.70312"
       y1="28.572577"
       x2="407.09146"
       y2="162.92287" />
    <linearGradient
       inkscape:collect="always"
       xlink:href="#linearGradient3411"
       id="linearGradient3487"
       gradientUnits="userSpaceOnUse"
       gradientTransform="matrix(1,0,0,1.0130609,-35.48128,168.98767)"
       x1="318.70312"
       y1="28.572577"
       x2="407.09146"
       y2="162.92287" />
    <linearGradient
       inkscape:collect="always"
       xlink:href="#linearGradient3579"
       id="linearGradient3489"
       gradientUnits="userSpaceOnUse"
       gradientTransform="matrix(1,0,0,1.0130609,-0.96875,78.987731)"
       x1="318.70312"
       y1="28.572577"
       x2="407.09146"
       y2="162.92287" />
    <linearGradient
       inkscape:collect="always"
       xlink:href="#linearGradient3579"
       id="linearGradient3493"
       gradientUnits="userSpaceOnUse"
       gradientTransform="matrix(1,0,0,1.0130609,-35.48128,78.987731)"
       x1="318.70312"
       y1="28.572577"
       x2="407.09146"
       y2="162.92287" />
    <linearGradient
       inkscape:collect="always"
       xlink:href="#linearGradient3295"
       id="linearGradient3497"
       gradientUnits="userSpaceOnUse"
       gradientTransform="matrix(1,0,0,1.0002656,-35.48128,-10.717069)"
       x1="318.70312"
       y1="28.572577"
       x2="407.09146"
       y2="162.92287" />
  </defs>
  <sodipodi:namedview
     id="base"
     pagecolor="#ffffff"
     bordercolor="#666666"
     borderopacity="1.0"
     inkscape:pageopacity="0.0"
     inkscape:pageshadow="2"
     inkscape:zoom="0.70710678"
     inkscape:cx="264.74014"
     inkscape:cy="761.9152"
     inkscape:document-units="px"
     inkscape:current-layer="layer1"
     showgrid="false"
     inkscape:window-width="1680"
     inkscape:window-height="971"
     inkscape:window-x="0"
     inkscape:window-y="26" />
  <metadata
     id="metadata7">
    <rdf:RDF>
      <cc:Work
         rdf:about="">
        <dc:format>image/svg+xml</dc:format>
        <dc:type
           rdf:resource="http://purl.org/dc/dcmitype/StillImage" />
      </cc:Work>
    </rdf:RDF>
  </metadata>
  <g
     inkscape:groupmode="layer"
     id="layer2"
     inkscape:label="palette"
     style="display:inline"
     sodipodi:insensitive="true">
    <rect
       style="opacity:1;fill:#8c3e54;fill-opacity:1;stroke:none;stroke-width:2;stroke-linecap:butt;stroke-linejoin:miter;stroke-miterlimit:4;stroke-dasharray:none;stroke-opacity:1"
       id="rect3280"
       width="116.16754"
       height="42.426407"
       x="-134.35025"
       y="-50.724396" />
    <rect
       y="4.8339386"
       x="-134.35025"
       height="42.426407"
       width="116.16754"
       id="rect3282"
       style="opacity:1;fill:#5c3166;fill-opacity:1;stroke:none;stroke-width:2;stroke-linecap:butt;stroke-linejoin:miter;stroke-miterlimit:4;stroke-dasharray:none;stroke-opacity:1" />
    <rect
       style="opacity:1;fill:#3c274f;fill-opacity:1;stroke:none;stroke-width:2;stroke-linecap:butt;stroke-linejoin:miter;stroke-miterlimit:4;stroke-dasharray:none;stroke-opacity:1"
       id="rect3284"
       width="116.16754"
       height="42.426407"
       x="-134.35025"
       y="60.392376" />
    <rect
       y="115.95073"
       x="-134.35025"
       height="42.426407"
       width="116.16754"
       id="rect3286"
       style="opacity:1;fill:#2e4f3d;fill-opacity:1;stroke:none;stroke-width:2;stroke-linecap:butt;stroke-linejoin:miter;stroke-miterlimit:4;stroke-dasharray:none;stroke-opacity:1" />
    <rect
       style="opacity:1;fill:#5f6e48;fill-opacity:1;stroke:none;stroke-width:2;stroke-linecap:butt;stroke-linejoin:miter;stroke-miterlimit:4;stroke-dasharray:none;stroke-opacity:1"
       id="rect3288"
       width="116.16754"
       height="42.426407"
       x="-134.35025"
       y="171.50917" />
  </g>
  <g
     inkscape:groupmode="layer"
     id="layer6"
     inkscape:label="Heading 5"
     style="display:inline">
    <g
       id="g3388"
       transform="translate(-35.34375,-2.3952774)">
      <path
         sodipodi:nodetypes="cccccc"
         id="path3741"
         d="M 45.01253,375.27316 C 39.689673,375.27316 35.35628,379.60655 35.35628,384.92941 L 35.35628,414.75746 L 635.34375,414.75746 L 635.34375,375.27316 L 45.01253,375.27316 z"
         style="fill:url(#linearGradient3747);fill-opacity:1;stroke:none;stroke-width:7;stroke-linecap:butt;stroke-linejoin:miter;stroke-miterlimit:4;stroke-dasharray:none;stroke-opacity:1;display:inline" />
      <path
         id="path3349"
         d="M 127.5625,375.28125 C 127.55535,375.29705 127.53797,375.29573 127.53125,375.3125 C 127.4474,375.52192 127.34022,375.90483 127.28125,376.1875 C 127.20133,376.57053 126.53282,378.62254 126.34375,379.0625 C 126.33253,379.08863 126.2018,379.05329 126.0625,378.96875 C 125.92319,378.88421 125.62183,378.73105 125.4375,378.65625 C 125.25319,378.58144 125.0223,378.44403 124.875,378.3125 C 124.31556,377.81294 124.12033,378.18712 124.40625,379.21875 C 124.4998,379.55635 124.63173,380.21847 124.6875,380.8125 C 124.74068,381.37886 124.76585,381.97714 124.8125,382.15625 C 124.9019,382.49961 124.87909,382.71054 124.21875,384.1875 C 123.9834,384.71391 124.0254,384.81587 124.78125,385.25 C 125.09791,385.43185 125.48531,385.74725 125.65625,385.96875 C 125.72975,386.06401 125.76479,386.07268 125.8125,386.125 C 123.76431,388.97316 119.43407,389.58902 118.65625,389.6875 C 117.96111,389.54936 117.29458,389.41677 116.59375,389.28125 C 115.88612,389.1444 115.15211,389.00773 114.4375,388.875 C 114.32796,388.66112 114.04239,388.46376 113.53125,388.21875 C 113.12042,388.02182 112.79202,387.79633 112.78125,387.71875 C 112.74847,387.48263 112.03988,387.24664 111.5625,387.3125 C 111.10192,387.37603 110.84265,387.64197 110.71875,388.21875 C 107.83624,387.74776 104.87165,387.34601 101.84375,387.125 C 102.2507,386.96542 102.70514,386.78483 103.15625,386.5625 C 103.94129,386.17561 104.7394,385.71673 105.375,385.125 C 105.90468,384.63189 106.32285,384.03731 106.5,383.375 C 106.66012,383.45531 106.83183,383.54615 106.96875,383.6875 C 107.04875,383.72136 107.12971,383.73859 107.25,383.71875 C 107.60558,383.66011 107.96879,383.68622 108.34375,383.84375 C 108.50689,383.91229 108.67515,383.96787 108.75,383.9375 C 108.89871,383.87714 108.95067,383.53917 108.84375,383.21875 C 108.80819,383.1122 108.75856,382.91683 108.75,382.75 C 108.73581,382.47332 108.77459,382.36032 109.25,381.84375 C 109.53667,381.53228 109.93536,381.25114 110.09375,381.15625 C 110.41242,380.96534 110.50683,380.77787 110.4375,380.625 C 110.38357,380.50611 110.22611,380.40827 109.9375,380.3125 C 109.10014,380.0346 108.61786,379.88613 108.4375,379.875 C 108.27742,379.86513 108.24549,379.83407 108.09375,379.375 C 108.00075,379.09367 107.79596,378.32455 107.625,377.6875 C 107.28115,376.40626 107.11026,376.05489 106.9375,376.125 C 106.87585,376.15001 106.70465,376.49724 106.53125,376.9375 C 106.35787,377.37773 106.06715,378.00628 105.9375,378.28125 L 105.71875,378.75 L 105.25,378.625 C 104.99448,378.5396 104.65182,378.38617 104.46875,378.3125 C 104.28569,378.2388 104.09381,378.23978 104.03125,378.28125 C 103.91671,378.35715 103.97841,378.65122 104.5,380.53125 C 104.61077,380.93054 104.59199,380.9089 104.28125,381.5 C 104.08673,381.87001 104.00083,382.19005 104.03125,382.28125 C 104.08336,382.43736 104.2754,382.56771 104.8125,382.75 C 104.99045,382.81037 105.25839,382.93722 105.40625,383.0625 C 105.5292,383.16664 105.6373,383.23535 105.71875,383.25 C 105.77876,383.23709 105.81443,383.22148 105.875,383.21875 C 105.90969,383.20526 105.90849,383.1963 105.9375,383.1875 C 105.81265,383.74952 105.50368,384.28109 105,384.75 C 104.42276,385.28741 103.6617,385.75269 102.90625,386.125 C 101.90181,386.62002 101.08631,386.86111 100.53125,387.03125 C 94.9726,386.71695 89.095518,386.99973 82.8125,388.28125 C 82.75651,388.27134 82.65625,388.25 82.65625,388.25 L 82.65625,388.34375 C 80.730231,388.74141 78.788952,389.21746 76.78125,389.8125 C 78.051474,388.79699 79.494639,387.29977 80.21875,385.28125 C 80.274961,385.33696 80.317465,385.37601 80.4375,385.53125 C 80.897645,386.12634 81.294001,386.31952 81.78125,386.125 C 82.228806,385.94631 82.713194,385.34649 82.625,385.125 C 82.596035,385.05226 82.740168,384.71797 83,384.34375 C 83.323292,383.87817 83.479224,383.55257 83.46875,383.3125 C 83.460276,383.11732 83.444245,382.97699 83.40625,382.875 C 83.342881,382.70503 83.213106,382.63542 82.9375,382.53125 C 82.54734,382.38377 82.557471,382.36431 82.40625,381.75 C 82.320656,381.40224 82.196914,381.06279 82.15625,381.03125 C 82.1156,380.99971 81.971971,381.06151 81.8125,381.125 L 81.53125,381.25 L 81.3125,380.53125 C 81.193884,380.14892 80.995667,379.42854 80.90625,378.96875 C 80.737369,378.10036 80.662221,377.96057 80.40625,378.0625 C 80.261834,378.11999 80.090498,378.45307 79.34375,379.875 C 79.164163,380.21698 78.937505,380.50636 78.875,380.53125 C 78.812507,380.55613 78.749223,380.68673 78.6875,380.8125 C 78.545881,381.10102 78.258401,381.08739 77.5,380.875 C 77.178503,380.78498 76.868307,380.75903 76.8125,380.78125 C 76.664527,380.84017 76.724124,381.32819 76.90625,381.8125 C 76.993355,382.04414 77.060834,382.48042 77.09375,382.75 C 77.149816,383.20918 77.139188,383.24918 76.75,383.53125 C 76.204451,383.92663 76.169366,384.00022 76.28125,384.28125 C 76.385805,384.54381 77.250805,385.13263 77.875,385.34375 C 78.133091,385.43105 78.248539,385.57247 78.25,385.6875 C 78.582295,385.70127 78.897351,385.76849 79.125,385.90625 C 77.787783,388.61265 75.16122,390.13524 74.34375,390.5625 C 65.220824,393.42482 51.170249,392.17192 39.34375,390.15625 C 37.972792,389.92259 36.643549,389.68633 35.34375,389.4375 L 35.34375,390.15625 C 36.601686,390.39574 37.895009,390.64939 39.21875,390.875 C 50.937808,392.87235 64.800566,394.17719 74.1875,391.375 L 74.25,391.46875 C 74.249998,391.46874 74.513369,391.30533 74.625,391.25 C 74.739843,391.21368 74.855342,391.19387 74.96875,391.15625 C 77.679279,390.2572 80.288979,389.55469 82.84375,389.03125 C 82.856301,389.02868 82.893702,389.03381 82.90625,389.03125 C 84.000632,389.26156 87.499103,390.24227 90.0625,393.59375 C 89.610531,393.51892 88.493341,393.69938 88.25,393.90625 C 88.053564,394.07325 88.039699,394.16895 88.125,394.5 C 88.206571,394.81668 88.168404,394.91291 88,395.09375 C 87.673723,395.4441 86.882751,396.96817 86.90625,397.21875 C 86.931053,397.48302 87.145291,397.70904 87.375,397.6875 C 87.464271,397.67912 87.738837,397.73987 88,397.8125 C 88.460295,397.9405 88.51945,397.94759 88.5625,398.40625 C 88.586916,398.66654 88.542078,399.10233 88.5,399.375 C 88.430264,399.82694 88.428173,399.87353 88.65625,400.0625 C 88.883643,400.25087 88.945671,400.28239 89.25,400.125 C 89.434176,400.02976 89.851729,399.8227 90.125,399.6875 C 90.398235,399.55231 90.823102,399.27435 91.09375,399.0625 L 91.59375,398.65625 L 92.0625,398.9375 C 93.009132,399.45808 94.56618,399.99351 95.71875,400.1875 C 96.636975,400.34208 96.82667,399.89674 96.125,399.1875 C 95.764933,398.82352 95.443396,398.1902 95.40625,397.8125 C 95.391425,397.66171 96.076921,397.58042 96.4375,397.6875 C 96.812123,397.79875 96.988446,397.53868 96.96875,397.1875 C 96.967429,397.16409 96.940716,397.18049 96.9375,397.15625 C 96.906658,396.92348 96.811348,396.64128 96.59375,396.40625 C 96.002451,395.76753 95.355056,394.93027 95.34375,394.8125 C 95.337662,394.74918 95.423132,394.5633 95.5625,394.40625 C 95.701856,394.24921 95.896494,393.95904 95.96875,393.78125 C 96.089074,393.48518 96.075106,393.47826 95.875,393.3125 C 95.62234,393.10317 94.532909,392.87885 93.90625,392.90625 C 93.669698,392.91658 93.411211,392.93741 93.34375,392.9375 C 93.276285,392.93757 93.148355,392.72809 93.03125,392.53125 C 92.864724,392.2513 92.757413,392.19599 92.53125,392.21875 C 92.246195,392.24742 91.639327,392.67401 91.25,393.125 C 91.152338,393.27864 91.05057,393.37892 90.90625,393.46875 C 88.85642,390.64657 86.114447,389.34473 84.375,388.75 C 93.443366,387.11266 101.61428,387.58589 109.34375,388.75 C 109.21393,388.98226 109.0008,389.19882 108.71875,389.375 C 108.77433,389.47573 108.71247,389.70284 108.53125,389.90625 C 108.09293,390.39828 107.61739,391.28256 107.65625,391.5625 C 107.69784,391.8621 107.76783,391.92584 108.4375,392 C 108.91525,392.05289 108.97807,392.07312 109.15625,392.5 C 109.26084,392.75064 109.36752,393.16183 109.40625,393.40625 C 109.48723,393.91728 109.71723,394.3969 109.875,394.375 C 109.93448,394.36676 110.20251,394.14338 110.4375,393.90625 C 110.9919,393.34684 111.23432,393.25667 111.5,393.4375 C 111.61583,393.51633 111.74587,393.57174 111.8125,393.5625 C 111.87914,393.55326 112.20614,393.69771 112.53125,393.90625 C 113.88312,394.77342 114.18978,394.95887 114.34375,394.9375 C 114.61664,394.89962 114.62608,394.71345 114.34375,393.875 C 114.19427,393.4311 113.99206,392.73475 113.90625,392.34375 L 113.75,391.65625 L 114.0625,391.625 C 114.23253,391.60141 114.38649,391.5475 114.40625,391.5 C 114.42602,391.45248 114.34743,391.12588 114.25,390.78125 C 114.07788,390.17246 114.1087,390.1335 114.375,389.8125 C 114.42966,389.74661 114.46419,389.70921 114.5,389.65625 C 115.15068,389.77673 115.79141,389.87506 116.4375,390 C 117.10927,390.12989 117.76998,390.2739 118.4375,390.40625 L 118.4375,390.4375 C 118.4375,390.43749 118.55281,390.4383 118.5625,390.4375 C 124.3164,391.57947 129.93501,392.74657 135.59375,393.3125 C 135.61955,393.31507 135.63045,393.30994 135.65625,393.3125 C 135.85976,393.33309 140.31384,393.86325 142.65625,396.65625 C 142.40701,396.58593 142.1705,396.47601 141.90625,396.4375 C 141.61793,396.44614 141.40132,396.59682 140.90625,396.96875 C 140.60865,397.19231 140.58736,397.28213 140.75,397.65625 L 140.84375,397.9375 L 140.625,398.34375 C 140.50122,398.58462 140.38195,398.87373 140.34375,398.96875 C 140.30555,399.06375 140.20457,399.27109 140.09375,399.4375 C 139.98293,399.60391 139.84865,399.79587 139.84375,399.84375 C 139.82446,400.03232 140.07691,400.09647 140.65625,400.0625 C 141.41137,400.01824 141.84386,400.0754 141.90625,400.21875 C 141.93329,400.28087 142.12856,400.8319 142.34375,401.4375 C 142.68674,402.40283 142.78833,402.51599 142.9375,402.53125 C 143.14951,402.55295 143.1473,402.54951 143.59375,401.84375 C 143.79358,401.52788 144.02413,401.12659 144.125,400.96875 C 144.32891,400.64973 144.38214,400.63532 144.875,400.84375 C 145.06463,400.92396 145.42655,401.04084 145.6875,401.125 C 145.94845,401.20915 146.3543,401.40899 146.5625,401.53125 C 146.97433,401.77305 147.21096,401.7955 147.34375,401.625 C 147.40769,401.54292 147.36901,401.43817 147.28125,401.28125 C 147.05117,400.86992 146.99188,400.71176 146.90625,400.3125 C 146.85853,400.08998 146.72007,399.6451 146.59375,399.34375 C 146.46741,399.04243 146.37895,398.77269 146.40625,398.71875 C 146.43353,398.66483 146.63674,398.52666 146.875,398.4375 C 148.45977,397.84441 148.50997,397.72945 147.5625,397.15625 C 147.04008,396.84021 146.39659,396.31308 146.40625,396.21875 C 146.40888,396.19304 146.47642,395.98689 146.5625,395.71875 C 146.77265,395.06429 146.79521,394.63279 146.65625,394.5625 C 146.46512,394.46582 146.33897,394.49035 145.9375,394.625 C 144.84601,394.99109 144.83601,394.97343 144.53125,394.6875 C 144.218,394.3936 144.05751,394.42596 143.65625,394.8125 C 143.5865,394.87966 143.52272,394.91333 143.46875,394.96875 C 143.32776,395.16364 143.20086,395.37891 143.09375,395.59375 C 143.08948,395.62996 143.09442,395.67808 143.09375,395.71875 C 143.09202,395.82851 143.06026,395.89283 143.03125,395.9375 C 142.03794,394.82724 140.77321,394.09777 139.5625,393.59375 C 143.84656,393.77027 148.20776,393.5047 152.6875,392.5 L 152.6875,392.53125 C 152.68749,392.53126 152.76887,392.47443 152.78125,392.46875 C 152.87188,392.44817 152.97176,392.4587 153.0625,392.4375 C 154.6918,392.05671 156.41609,391.74458 158.1875,391.53125 C 158.11671,391.6378 158.05638,391.75531 158.03125,391.90625 C 157.95214,392.38162 158.17112,393.08565 158.40625,393.125 C 158.48351,393.13795 158.68957,393.49011 158.875,393.90625 C 159.10566,394.42403 159.32052,394.72832 159.53125,394.84375 C 159.70259,394.93763 159.83059,394.97966 159.9375,395 C 160.11573,395.03391 160.23682,394.99424 160.46875,394.8125 C 160.79705,394.55522 160.8025,394.52975 161.40625,394.71875 C 161.74801,394.8257 162.07694,394.89343 162.125,394.875 C 162.17301,394.85656 162.25293,394.70055 162.28125,394.53125 L 162.3125,394.25 L 163,394.40625 C 163.38845,394.50291 164.09166,394.71322 164.53125,394.875 C 165.36147,395.18058 165.54828,395.20924 165.59375,394.9375 C 165.6194,394.7842 165.45417,394.46925 164.625,393.09375 C 164.42558,392.76295 164.2389,392.4101 164.25,392.34375 C 164.26112,392.27739 164.23185,392.1492 164.15625,392.03125 C 163.99734,391.78317 164.10446,391.54366 164.5625,391.09375 C 168.10036,391.02287 171.79234,391.24775 175.5625,391.625 L 175.5625,391.65625 C 175.5625,391.65625 175.75314,391.62751 175.78125,391.625 C 181.33677,392.19065 186.98187,393.22227 192.53125,394.5 C 192.37347,394.62828 192.25532,394.74843 192.21875,394.84375 C 192.16071,394.995 192.2137,395.11426 192.375,395.28125 C 192.48843,395.39867 192.54395,395.51613 192.53125,395.5625 C 192.51857,395.60888 192.48895,395.77678 192.4375,395.9375 C 192.30119,396.36329 192.24719,397.13077 192.34375,397.34375 C 192.42024,397.51241 192.46137,397.52724 192.6875,397.5 C 192.8233,397.48363 193.02215,397.4414 193.15625,397.375 C 193.29039,397.3086 193.42636,397.23395 193.46875,397.25 C 193.54762,397.27988 194.01538,397.91116 194.34375,398.4375 C 194.46458,398.63115 194.59573,398.74766 194.75,398.8125 C 194.76605,398.81926 194.82788,398.80721 194.84375,398.8125 C 195.08156,398.89186 195.28754,398.84096 195.28125,398.5625 C 195.27519,398.29448 195.43035,397.83653 195.53125,397.875 C 195.78402,397.97134 196.12972,398.30918 196.3125,398.625 C 196.66868,399.24043 197.02791,399.22288 197.09375,398.5625 C 197.17638,397.7336 197.11803,396.56102 196.9375,395.8125 L 196.875,395.5 C 196.92639,395.51332 196.9799,395.54913 197.03125,395.5625 C 197.89385,395.7871 198.72122,395.99433 199.5625,396.1875 L 199.5625,396.21875 C 199.5625,396.21874 199.6773,396.18865 199.6875,396.1875 C 200.91815,396.46845 202.12812,396.75121 203.3125,396.96875 C 204.74412,397.31658 208.28095,398.50623 210.6875,402.1875 C 210.57977,402.1808 210.48222,402.19284 210.375,402.15625 C 209.78919,402.04788 209.05285,402.06285 208.8125,402.21875 C 208.62181,402.34243 208.57984,402.42741 208.625,402.75 C 208.65677,402.97686 208.61518,403.23911 208.5625,403.28125 C 208.50983,403.32339 208.34729,403.45387 208.15625,403.59375 C 207.65013,403.96433 206.90998,404.83491 206.84375,405.15625 C 206.79129,405.41073 206.8147,405.40675 207.09375,405.5625 C 207.26132,405.65605 207.57431,405.80838 207.78125,405.84375 C 207.98824,405.87911 208.18392,405.94679 208.21875,406 C 208.28361,406.09898 208.28063,407.13181 208.21875,408 C 208.19597,408.31949 208.28472,408.61159 208.40625,408.8125 C 208.41888,408.83342 208.45514,408.82465 208.46875,408.84375 C 208.67303,409.13009 208.93355,409.1961 209.15625,408.875 C 209.37062,408.56592 209.97976,408.24806 210.0625,408.375 C 210.26974,408.69293 210.36581,409.39706 210.3125,409.90625 C 210.20863,410.89851 210.63021,411.13241 211.25,410.4375 C 212.02796,409.56523 212.93073,408.18576 213.34375,407.1875 L 213.5625,406.65625 L 214.1875,406.625 C 214.53115,406.62099 215.046,406.56542 215.34375,406.5 C 215.64152,406.43454 216.04672,406.35336 216.25,406.3125 C 216.58586,406.24496 216.6279,406.22671 216.6875,405.9375 C 216.74726,405.64742 216.74333,405.55901 216.40625,405.25 C 216.20288,405.06356 215.89375,404.7496 215.75,404.53125 C 215.49673,404.14648 215.50216,404.13776 215.78125,403.75 C 215.93962,403.52998 216.14388,403.26807 216.21875,403.21875 C 216.41149,403.09191 216.42719,402.81545 216.28125,402.59375 C 216.14286,402.38352 214.5987,401.69429 214.125,401.625 C 213.88048,401.58924 213.7907,401.51686 213.65625,401.21875 C 213.51574,400.90711 213.44521,400.81993 213.1875,400.8125 C 212.86824,400.80327 211.86834,401.40893 211.5625,401.75 C 211.54163,401.78332 211.52466,401.81323 211.5,401.84375 C 211.49114,401.86027 211.47162,401.89219 211.46875,401.90625 C 211.4572,401.96225 211.42274,401.97391 211.40625,402 C 210.00586,399.78073 208.23997,398.34678 206.625,397.46875 C 213.04709,398.37916 218.6911,398.35036 223.5625,397.875 C 224.21415,398.00146 229.77768,399.24673 231.59375,404.0625 C 231.51495,404.09264 231.37363,404.10038 231.21875,404.09375 C 231.13221,404.11633 231.05846,404.11563 230.96875,404.125 C 230.85956,404.17882 230.78903,404.28254 230.65625,404.46875 C 230.49655,404.69274 230.13372,405.00233 229.90625,405.15625 C 229.21962,405.62082 228.98126,405.90284 228.96875,406.125 C 228.96141,406.25478 229.20602,406.54789 229.625,406.9375 C 230.2943,407.55988 230.34409,407.5977 230.34375,408.15625 C 230.34219,410.78617 230.34,411.17097 230.53125,411.21875 C 230.6357,411.24486 230.92675,411.14187 231.15625,410.96875 C 231.38577,410.79563 231.82912,410.46925 232.15625,410.25 L 232.75,409.875 L 233.3125,410.40625 C 233.60281,410.70221 234.17716,411.32397 234.59375,411.8125 C 235.01036,412.30106 235.43453,412.71329 235.53125,412.71875 C 235.80238,412.73402 235.85907,412.19354 235.84375,410.40625 C 235.83612,409.51761 235.85371,408.46247 235.875,408.0625 C 235.9098,407.40982 235.93426,407.33161 236.15625,407.25 C 236.40638,407.15807 237.02089,406.80998 238.09375,406.09375 C 238.46355,405.84688 238.65787,405.6441 238.6875,405.46875 C 238.72563,405.24329 238.49292,405.0445 237.96875,404.9375 C 237.70821,404.88435 237.05737,404.65005 236.53125,404.375 C 235.6587,403.91889 235.55679,403.82881 235.46875,403.46875 C 235.41566,403.25164 235.39772,402.90164 235.40625,402.75 C 235.43195,402.29401 235.26465,401.95066 235.03125,401.9375 C 234.91377,401.9309 234.64089,402.0608 234.4375,402.21875 C 233.97,402.58183 233.46211,402.79686 232.9375,402.875 C 232.76003,402.90143 232.66216,402.95351 232.5625,403.03125 C 232.45795,403.213 232.29431,403.356 232.15625,403.5 C 230.73446,400.07318 227.58022,398.43566 225.46875,397.6875 C 227.85122,397.38295 230.01659,397.00623 231.96875,396.53125 C 232.91038,396.30215 233.7862,396.03183 234.625,395.78125 L 240,399.375 C 239.87701,399.51825 239.77926,399.63413 239.59375,399.75 C 239.64934,399.85073 239.55621,400.01532 239.375,400.21875 C 238.93666,400.71078 238.46114,401.65756 238.5,401.9375 C 238.54157,402.23712 238.64283,402.30085 239.3125,402.375 C 239.79024,402.42791 239.82183,402.44814 240,402.875 C 240.10459,403.12562 240.24251,403.53685 240.28125,403.78125 C 240.36223,404.29229 240.56098,404.77191 240.71875,404.75 C 240.77823,404.74175 241.01501,404.5184 241.25,404.28125 C 241.8044,403.72182 242.04682,403.63166 242.3125,403.8125 C 242.42834,403.89134 242.58964,403.94676 242.65625,403.9375 C 242.72289,403.92824 243.0499,404.07272 243.375,404.28125 C 244.72687,405.14841 245.03354,405.33388 245.1875,405.3125 C 245.46039,405.2746 245.46982,405.08842 245.1875,404.25 C 245.03802,403.80608 244.86706,403.10973 244.78125,402.71875 L 244.625,402.03125 L 244.9375,402 C 245.10752,401.97642 245.23024,401.92252 245.25,401.875 C 245.26977,401.8275 245.22242,401.4696 245.125,401.125 C 244.95288,400.51622 244.92119,400.50851 245.1875,400.1875 C 245.37563,399.96075 245.4664,399.83535 245.4375,399.65625 C 245.42012,399.5488 245.37032,399.42388 245.28125,399.25 C 245.1717,399.03612 244.88614,398.83878 244.375,398.59375 C 243.96416,398.39683 243.60453,398.17131 243.59375,398.09375 C 243.56098,397.85762 242.85239,397.59039 242.375,397.65625 C 241.85529,397.72793 241.63722,398.06777 241.53125,398.8125 C 241.50036,399.02963 241.46324,399.11531 241.4375,399.1875 C 239.31887,396.6816 236.21932,395.94425 234.96875,395.71875 C 239.85025,394.2236 242.73592,392.54998 243.78125,391.90625 C 243.79737,392.09969 243.81465,392.30479 243.84375,392.5 C 243.98116,392.91094 244.28178,393.1992 245.03125,393.75 C 245.48176,394.08108 245.59494,394.08356 246.0625,393.6875 L 246.40625,393.375 L 247.15625,393.53125 C 247.55635,393.60482 247.97182,393.67376 248.125,393.6875 C 248.2782,393.70123 248.65016,393.78775 248.9375,393.875 C 249.22486,393.96229 249.52277,394.0137 249.59375,394 C 249.87335,393.94599 249.86244,393.50596 249.5625,392.6875 C 249.17155,391.62073 249.07089,391.02686 249.25,390.875 C 249.32763,390.80917 250.0348,390.25945 250.8125,389.6875 C 252.05214,388.7758 252.2302,388.62739 252.1875,388.40625 C 252.12682,388.09193 252.02101,388.08619 250.8125,387.75 C 250.27161,387.59955 249.61446,387.38916 249.34375,387.3125 C 248.79656,387.15755 248.78887,387.11165 248.875,386.3125 C 248.90814,386.00502 248.92958,385.38051 248.9375,384.96875 C 248.94542,384.55698 249.00816,383.97743 249.09375,383.625 C 249.26302,382.92791 249.209,382.58582 248.90625,382.46875 C 248.76041,382.41238 248.65639,382.49326 248.46875,382.6875 C 247.9769,383.19665 247.72459,383.36005 247.1875,383.65625 C 246.88819,383.82133 246.34738,384.1877 245.96875,384.5 C 245.59014,384.81229 245.21442,385.07837 245.125,385.0625 C 245.03557,385.04663 244.76277,384.77277 244.53125,384.46875 C 242.99142,382.44663 242.7887,382.42018 242.375,384.03125 C 242.1469,384.91958 241.70235,386.09799 241.5625,386.125 C 241.52441,386.13235 241.14169,386.13259 240.71875,386.125 C 239.68642,386.10643 239.07213,386.23844 239.03125,386.46875 C 238.97505,386.78554 239.1011,387.04348 239.46875,387.5625 C 240.46835,388.97357 240.43537,388.93779 240.15625,389.5 C 239.86931,390.07789 239.98889,390.3092 240.71875,390.71875 C 240.84558,390.78992 240.92817,390.82139 241.03125,390.875 C 241.37265,390.99331 241.70709,391.09533 242.0625,391.15625 C 242.1165,391.14673 242.16,391.11044 242.21875,391.09375 C 242.53595,391.00363 242.73395,391.08157 242.6875,391.21875 C 242.85557,391.23112 243.04909,391.25118 243.21875,391.25 C 243.6947,390.7989 243.81185,390.74746 243.75,391.0625 C 243.19294,391.42981 239.20995,393.98138 231.8125,395.78125 C 230.15291,396.18505 228.29371,396.52761 226.3125,396.8125 C 227.68703,396.05583 229.44836,394.83572 230.8125,392.90625 C 230.91133,392.961 230.97862,392.99151 231.0625,393.0625 C 231.08814,393.05841 231.12903,393.07529 231.15625,393.125 C 231.27598,393.24122 231.39373,393.38642 231.46875,393.53125 C 231.60984,393.61873 231.7842,393.64688 231.90625,393.59375 C 232.15065,393.48739 233.33653,393.75745 234.09375,394.09375 C 234.44868,394.25135 234.71549,394.35115 234.90625,394.34375 C 235.09702,394.33636 235.18438,394.23332 235.1875,394.0625 C 235.18931,393.96283 235.14785,393.38826 235.125,392.78125 C 235.08381,391.686 235.10318,391.70136 235.375,391.625 C 235.52566,391.58266 235.76751,391.38957 235.9375,391.21875 C 236.41496,390.73892 237.67279,389.82189 237.875,389.8125 C 238.13839,389.80027 238.72632,389.38956 238.71875,389.21875 C 238.70828,388.98143 238.38679,388.79317 237.34375,388.40625 C 236.80224,388.2054 236.2116,387.9762 236,387.875 C 235.7884,387.77378 235.41522,387.65171 235.1875,387.625 C 234.68877,387.56655 234.60454,387.46084 234.3125,386.03125 C 234.19705,385.46594 234.01085,384.55786 233.875,384.03125 C 233.73915,383.50466 233.57709,382.92385 233.53125,382.71875 C 233.46167,382.40748 233.29984,381.89818 233.03125,381.15625 C 232.94058,380.90583 232.57861,380.99218 232.3125,381.375 C 232.1659,381.58588 231.95251,382.02424 231.84375,382.3125 C 231.69637,382.70313 230.51671,384.77654 230.1875,385.21875 C 230.16793,385.24501 229.97545,385.1904 229.75,385.09375 C 229.52454,384.99709 229.08111,384.8396 228.78125,384.75 C 228.48138,384.66043 228.04914,384.45824 227.8125,384.3125 C 226.91377,383.75888 226.60439,384.13333 227.03125,385.21875 C 227.17092,385.57393 227.30816,386.25723 227.375,386.875 C 227.43873,387.46398 227.52459,388.15551 227.59375,388.34375 C 227.72637,388.70463 227.61602,388.89221 226.46875,390.375 C 226.05987,390.90344 226.15068,391.00095 227.375,391.5 C 227.88793,391.70904 228.50957,392.04091 228.78125,392.28125 C 229.24866,392.69473 229.23275,392.71693 229.78125,392.625 L 230.09375,392.53125 C 227.62758,395.9523 223.875,397.125 223.875,397.125 C 223.77248,397.13559 223.66575,397.1461 223.5625,397.15625 C 223.55254,397.15454 223.4375,397.125 223.4375,397.125 L 223.4375,397.15625 C 220.13201,397.47504 216.47568,397.60815 212.4375,397.34375 C 214.18672,396.70871 216.67795,395.38321 218.625,392.6875 C 218.76938,392.77734 218.93356,392.90882 219.03125,393.0625 C 219.42056,393.51346 219.9962,393.90882 220.28125,393.9375 C 220.50741,393.96028 220.61473,393.87371 220.78125,393.59375 C 220.89834,393.3969 221.02629,393.24992 221.09375,393.25 C 221.16121,393.25005 221.45095,393.27091 221.6875,393.28125 C 222.31416,393.30868 223.37234,393.05307 223.625,392.84375 C 223.82511,392.67801 223.83907,392.63981 223.71875,392.34375 C 223.64648,392.16598 223.45186,391.93828 223.3125,391.78125 C 223.17315,391.62422 223.08766,391.40705 223.09375,391.34375 C 223.10506,391.22599 223.75245,390.41996 224.34375,389.78125 C 224.56134,389.5462 224.68791,389.26402 224.71875,389.03125 C 224.72197,389.00702 224.71743,388.99216 224.71875,388.96875 C 224.73845,388.61753 224.56212,388.38874 224.1875,388.5 C 223.82693,388.6071 223.14142,388.52579 223.15625,388.375 C 223.19341,387.99732 223.54619,387.36396 223.90625,387 C 224.60791,386.29078 224.41823,385.84544 223.5,386 C 222.34744,386.19399 220.75913,386.72942 219.8125,387.25 L 219.34375,387.5 L 218.84375,387.125 C 218.57311,386.91315 218.11698,386.63519 217.84375,386.5 C 217.57047,386.36481 217.21543,386.15775 217.03125,386.0625 C 216.72693,385.90512 216.66489,385.93663 216.4375,386.125 C 216.20943,386.31394 216.18026,386.36057 216.25,386.8125 C 216.29207,387.08518 216.30567,387.52098 216.28125,387.78125 C 216.2382,388.23991 216.24154,388.247 215.78125,388.375 C 215.52009,388.44765 215.21427,388.50836 215.125,388.5 C 214.89529,388.47844 214.7123,388.70449 214.6875,388.96875 C 214.66401,389.21933 215.42372,390.71216 215.75,391.0625 C 215.91842,391.24333 215.95657,391.37082 215.875,391.6875 C 215.7897,392.01857 215.77232,392.11426 215.96875,392.28125 C 216.20656,392.48342 217.3098,392.65663 217.78125,392.59375 C 214.7088,396.55576 210.28125,397.15625 210.28125,397.15625 C 207.97498,396.93844 205.58244,396.59898 203.0625,396.125 C 202.85078,396.07977 202.75,396.0625 202.75,396.0625 C 202.32717,395.98128 201.89745,395.87042 201.46875,395.78125 C 202.99867,395.33871 205.13707,394.44592 206.75,392.65625 C 206.86264,393.3402 207.12567,393.64988 207.625,393.71875 C 208.10238,393.78457 208.81096,393.54864 208.84375,393.3125 C 208.85452,393.23493 209.21419,393.00943 209.625,392.8125 C 210.13615,392.56749 210.42173,392.37012 210.53125,392.15625 C 210.62032,391.98237 210.67014,391.82619 210.6875,391.71875 C 210.71642,391.53966 210.62563,391.44552 210.4375,391.21875 C 210.17119,390.89773 210.14039,390.85879 210.3125,390.25 C 210.40994,389.90538 210.48852,389.57877 210.46875,389.53125 C 210.449,389.48376 210.29501,389.4611 210.125,389.4375 L 209.8125,389.375 L 209.96875,388.65625 C 210.05456,388.26527 210.25677,387.56891 210.40625,387.125 C 210.68856,386.28655 210.7104,386.10038 210.4375,386.0625 C 210.28353,386.04113 209.97687,386.25783 208.625,387.125 C 208.2999,387.33353 207.97289,387.47799 207.90625,387.46875 C 207.83963,387.45949 207.67832,387.51491 207.5625,387.59375 C 207.29682,387.77459 207.05438,387.65317 206.5,387.09375 C 206.265,386.85661 206.02825,386.66451 205.96875,386.65625 C 205.81102,386.63438 205.581,387.08271 205.5,387.59375 C 205.46126,387.83817 205.3546,388.24937 205.25,388.5 C 205.07184,388.9269 205.04024,388.94711 204.5625,389 C 203.89282,389.07416 203.7916,389.13789 203.75,389.4375 C 203.71115,389.71743 204.18668,390.66424 204.625,391.15625 C 204.80622,391.35967 204.86808,391.52427 204.8125,391.625 C 204.81116,391.62742 204.81444,391.65375 204.8125,391.65625 C 205.09456,391.83244 205.30767,392.04899 205.4375,392.28125 C 205.74172,392.32911 205.96781,392.263 206.15625,392.21875 C 203.78994,394.77905 200.34446,395.35433 199.75,395.4375 C 199.00637,395.26713 198.2604,395.07009 197.5,394.875 C 197.61629,394.77064 197.73816,394.6463 197.8125,394.5625 C 197.95667,394.39993 198.18124,394.20254 198.28125,394.09375 C 198.4465,393.914 198.43067,393.87917 198.34375,393.6875 C 198.25658,393.49525 198.19884,393.47426 197.875,393.4375 C 197.67962,393.41531 197.39315,393.34682 197.21875,393.28125 C 196.91144,393.16568 196.90799,393.15299 196.90625,392.8125 C 196.90525,392.6193 196.91503,392.40356 196.9375,392.34375 C 196.9954,392.18984 196.89582,392.03535 196.71875,391.96875 C 196.55084,391.90562 195.33333,392.12256 195.03125,392.28125 C 194.87536,392.36316 194.79621,392.33419 194.59375,392.21875 C 194.38206,392.09804 194.33915,392.11496 194.1875,392.21875 C 193.99963,392.34727 193.65826,393.11268 193.625,393.4375 C 193.62696,393.46547 193.62642,393.50332 193.625,393.53125 C 193.62685,393.54449 193.62077,393.55318 193.625,393.5625 C 193.67308,393.66852 193.66239,393.70288 193.59375,393.6875 C 193.59035,393.6981 193.5977,393.70825 193.59375,393.71875 C 193.56631,393.79171 193.51778,393.84851 193.46875,393.90625 C 192.17296,393.60056 190.87243,393.33671 189.5625,393.0625 C 191.69732,392.46949 195.08511,391.01238 196.75,387.59375 C 196.87917,387.74579 197.00031,387.90604 197.09375,388.09375 C 197.18855,388.17735 197.32444,388.2442 197.5,388.28125 C 198.01894,388.3908 198.49267,388.64073 198.9375,389.03125 C 199.13105,389.20118 199.4136,389.3433 199.53125,389.34375 C 199.76501,389.34466 199.93574,388.98797 199.9375,388.53125 C 199.9381,388.37937 199.99646,388.08853 200.0625,387.875 C 200.17202,387.52087 200.25788,387.43406 201.15625,387.03125 C 201.69795,386.78831 202.39298,386.56867 202.65625,386.53125 C 203.18591,386.45598 203.39948,386.28984 203.375,386.0625 C 203.35596,385.8857 203.19804,385.67489 202.84375,385.40625 C 201.81586,384.62683 201.21289,384.20055 200.96875,384.09375 C 200.75205,383.99896 200.71423,383.90359 200.71875,383.25 C 200.72151,382.84947 200.78272,381.8241 200.84375,380.9375 C 200.96651,379.15435 200.92781,378.62605 200.65625,378.625 C 200.55936,378.62463 200.07022,378.97487 199.625,379.4375 C 199.17977,379.90013 198.58883,380.53455 198.28125,380.8125 L 197.71875,381.3125 L 197.15625,380.875 C 196.84288,380.63645 196.43743,380.28035 196.21875,380.09375 C 196.00008,379.90714 195.69958,379.76148 195.59375,379.78125 C 195.39996,379.81745 195.34405,380.24974 195.1875,382.875 C 195.15427,383.43254 195.14302,383.45024 194.4375,384.03125 C 193.99587,384.39498 193.71926,384.6825 193.71875,384.8125 C 193.71789,385.03502 193.93631,385.33874 194.59375,385.84375 C 194.81157,386.01107 195.13531,386.29808 195.28125,386.53125 C 195.40261,386.72514 195.51923,386.87721 195.625,386.9375 C 195.71398,386.95222 195.75874,386.941 195.84375,386.96875 C 195.99875,386.97143 196.1419,386.99641 196.21875,387.03125 C 194.09298,391.78086 188.32824,392.58905 187.78125,392.65625 C 184.62523,392.03552 181.45923,391.48296 178.3125,391.09375 C 180.15665,390.55203 182.43227,389.49533 183.75,387.40625 L 183.75,387.5 C 183.91405,387.55942 184.09536,387.65957 184.21875,387.8125 C 184.23421,387.80752 184.2635,387.8593 184.28125,387.90625 C 184.35684,388.01381 184.41962,388.11306 184.46875,388.25 C 184.55658,388.32898 184.61468,388.39983 184.6875,388.34375 C 184.83331,388.23143 185.59435,388.42355 186.0625,388.71875 C 186.28194,388.85713 186.44681,388.92086 186.5625,388.90625 C 186.67816,388.89165 186.72106,388.82134 186.71875,388.65625 C 186.71742,388.55992 186.7163,387.99163 186.6875,387.40625 C 186.63555,386.35005 186.6493,386.30312 186.8125,386.21875 C 186.90295,386.17202 187.02596,386.0154 187.125,385.84375 C 187.40323,385.36165 188.12742,384.45446 188.25,384.4375 C 188.40966,384.41542 188.75879,383.97715 188.75,383.8125 C 188.73782,383.58365 188.54924,383.3954 187.90625,383.0625 C 187.57244,382.88968 187.16225,382.68322 187.03125,382.59375 C 186.90023,382.5043 186.70145,382.42313 186.5625,382.40625 C 186.25817,382.3693 186.24376,382.24432 186.03125,380.875 C 185.9472,380.33352 185.78296,379.5033 185.6875,379 C 185.59205,378.49668 185.47039,377.91505 185.4375,377.71875 C 185.38761,377.4208 185.30638,376.9561 185.125,376.25 C 185.06379,376.01169 184.80845,376.11987 184.65625,376.5 C 184.5724,376.70942 184.49646,377.12358 184.4375,377.40625 C 184.35757,377.7893 183.68907,379.87254 183.5,380.3125 C 183.48879,380.33865 183.35806,380.27203 183.21875,380.1875 C 183.07944,380.10295 182.80933,379.9498 182.625,379.875 C 182.4407,379.80019 182.1473,379.66278 182,379.53125 C 181.44057,379.03167 181.24532,379.37461 181.53125,380.40625 C 181.62481,380.74381 181.75673,381.40597 181.8125,382 C 181.86566,382.56635 181.95336,383.19589 182,383.375 C 182.08942,383.71838 182.00409,383.92929 181.34375,385.40625 C 181.1084,385.93264 181.18165,386.03462 181.9375,386.46875 C 182.25416,386.65063 182.61031,386.93475 182.78125,387.15625 C 182.85475,387.25151 182.88978,387.26018 182.9375,387.3125 C 180.97,390.01718 177.06646,390.72284 176,390.875 C 172.4454,390.50612 168.96537,390.28885 165.59375,390.3125 C 165.74067,390.2458 165.88202,390.19854 166.03125,390.125 C 166.81629,389.7381 167.61439,389.24799 168.25,388.65625 C 168.77969,388.16313 169.19785,387.53731 169.375,386.875 C 169.53906,386.95557 169.70377,387.10549 169.84375,387.25 C 169.92373,387.28385 170.00472,387.26985 170.125,387.25 C 170.48059,387.19138 170.84379,387.24872 171.21875,387.40625 C 171.38189,387.47481 171.55015,387.49912 171.625,387.46875 C 171.7737,387.40838 171.82566,387.10168 171.71875,386.78125 C 171.68319,386.67469 171.63356,386.44808 171.625,386.28125 C 171.61081,386.0046 171.68084,385.92282 172.15625,385.40625 C 172.44289,385.09476 172.81036,384.75115 172.96875,384.65625 C 173.28741,384.46536 173.41307,384.30912 173.34375,384.15625 C 173.28982,384.03735 173.13236,383.93952 172.84375,383.84375 C 172.00637,383.56584 171.49286,383.41738 171.3125,383.40625 C 171.15243,383.39637 171.12049,383.33407 170.96875,382.875 C 170.87576,382.59368 170.67096,381.82456 170.5,381.1875 C 170.15613,379.90623 170.01651,379.55489 169.84375,379.625 C 169.78211,379.65004 169.57964,380.05974 169.40625,380.5 C 169.23287,380.94025 169.00465,381.50628 168.875,381.78125 L 168.625,382.28125 L 168.15625,382.125 C 167.90073,382.03962 167.52682,381.91742 167.34375,381.84375 C 167.16069,381.77007 166.96881,381.73979 166.90625,381.78125 C 166.79172,381.85716 166.85341,382.15123 167.375,384.03125 C 167.48579,384.43055 167.49824,384.4714 167.1875,385.0625 C 166.99297,385.4325 166.87583,385.72129 166.90625,385.8125 C 166.95836,385.9686 167.1504,386.09896 167.6875,386.28125 C 167.86545,386.34165 168.16464,386.49972 168.3125,386.625 C 168.43547,386.72916 168.5123,386.7666 168.59375,386.78125 C 168.65376,386.76834 168.72068,386.72148 168.78125,386.71875 C 168.79732,386.71249 168.79768,386.72403 168.8125,386.71875 C 168.6808,387.26602 168.36735,387.79163 167.875,388.25 C 167.29775,388.7874 166.53669,389.25269 165.78125,389.625 C 165.41463,389.80568 165.05868,389.98689 164.71875,390.125 C 164.56422,390.05972 164.41393,390.00528 164.21875,389.96875 C 163.9755,389.92323 163.56012,389.76779 163.3125,389.65625 C 162.89074,389.46626 162.85207,389.44778 162.8125,388.96875 C 162.75701,388.29728 162.73583,388.17493 162.4375,388.125 C 162.15873,388.07837 161.19153,388.57554 160.6875,389 C 160.47911,389.17548 160.31789,389.21462 160.21875,389.15625 C 160.03473,389.43329 159.82953,389.65793 159.59375,389.78125 C 159.52227,390.16555 159.51221,390.41532 159.59375,390.625 C 157.93066,390.78294 156.30798,391.01738 154.75,391.3125 C 156.01752,390.3864 157.5365,388.88925 158.40625,386.875 C 158.73369,387.50621 159.02954,387.75028 159.53125,387.65625 C 160.00488,387.5675 160.60621,387.10936 160.5625,386.875 C 160.54817,386.79803 160.82897,386.50443 161.15625,386.1875 C 161.56345,385.7932 161.71386,385.48756 161.75,385.25 C 161.77941,385.05685 161.83006,384.9199 161.8125,384.8125 C 161.78321,384.63347 161.65652,384.56174 161.40625,384.40625 C 161.05196,384.18615 161.06085,384.13195 161.03125,383.5 C 161.0145,383.14228 160.9713,382.82006 160.9375,382.78125 C 160.90371,382.74244 160.73124,382.71853 160.5625,382.75 L 160.25,382.84375 L 160.15625,382.09375 C 160.1138,381.69571 160.09259,380.99966 160.09375,380.53125 C 160.09594,379.64655 160.0521,379.48072 159.78125,379.53125 C 159.62846,379.55973 159.38256,379.84301 158.375,381.09375 C 158.13271,381.39457 157.87864,381.61266 157.8125,381.625 C 157.74638,381.63731 157.64737,381.73228 157.5625,381.84375 C 157.36776,382.09946 157.07804,382.105 156.375,381.75 C 156.07698,381.59952 155.7778,381.45774 155.71875,381.46875 C 155.56218,381.49797 155.50869,382.02087 155.59375,382.53125 C 155.63444,382.77534 155.67607,383.1979 155.65625,383.46875 C 155.62248,383.93011 155.56138,383.95473 155.125,384.15625 C 154.51333,384.43872 154.44455,384.51514 154.5,384.8125 C 154.55183,385.09032 155.3034,385.82843 155.875,386.15625 C 156.11133,386.2918 156.23955,386.4181 156.21875,386.53125 C 156.21822,386.53395 156.18855,386.55951 156.1875,386.5625 C 156.51087,386.6403 156.80328,386.78958 157,386.96875 C 157.30942,386.91681 157.49077,386.79213 157.65625,386.6875 C 156.24771,389.82786 153.11529,391.525 152.59375,391.78125 C 146.79092,393.09435 141.20495,393.14834 135.65625,392.59375 C 130.67423,392.09579 125.7112,391.082 120.625,390.0625 C 122.5273,389.57802 125.17627,388.48209 126.625,386.1875 L 126.625,386.3125 C 126.78905,386.3719 126.9391,386.47206 127.0625,386.625 C 127.07796,386.62006 127.10726,386.64054 127.125,386.6875 C 127.20058,386.79504 127.26337,386.8943 127.3125,387.03125 C 127.40033,387.11021 127.48968,387.14983 127.5625,387.09375 C 127.70829,386.98145 128.46935,387.2048 128.9375,387.5 C 129.15694,387.63836 129.32181,387.67086 129.4375,387.65625 C 129.55318,387.64162 129.59606,387.57134 129.59375,387.40625 C 129.59242,387.30997 129.59129,386.77289 129.5625,386.1875 C 129.51055,385.13128 129.46179,385.11563 129.625,385.03125 C 129.71546,384.9845 129.86971,384.79664 129.96875,384.625 C 130.24695,384.14288 130.97117,383.23571 131.09375,383.21875 C 131.2534,383.19665 131.63378,382.75841 131.625,382.59375 C 131.61279,382.36495 131.393,382.17666 130.75,381.84375 C 130.41619,381.67094 130.03724,381.46447 129.90625,381.375 C 129.77523,381.28554 129.57646,381.20439 129.4375,381.1875 C 129.13318,381.15052 129.08751,381.05682 128.875,379.6875 C 128.79097,379.14606 128.62671,378.3158 128.53125,377.8125 C 128.43581,377.30919 128.34539,376.6963 128.3125,376.5 C 128.27107,376.25271 128.13296,375.80414 128,375.28125 L 127.5625,375.28125 z"
         style="opacity:0.5;fill:#ffffff;fill-opacity:1;stroke:none;stroke-width:7;stroke-linecap:butt;stroke-linejoin:miter;stroke-miterlimit:4;stroke-dasharray:none;stroke-opacity:1;display:inline" />
    </g>
  </g>
  <g
     inkscape:groupmode="layer"
     id="layer5"
     inkscape:label="Heading 4"
     style="display:inline">
    <path
       style="fill:url(#linearGradient3474);fill-opacity:1;stroke:none;stroke-width:7;stroke-linecap:butt;stroke-linejoin:miter;stroke-miterlimit:4;stroke-dasharray:none;stroke-opacity:1"
       d="M 9.65625,281.87711 C 4.333393,281.87711 0,286.2671 0,291.65948 L 0,321.87711 L 600,321.87711 L 600,281.87711 L 9.65625,281.87711 z"
       id="path3478"
       sodipodi:nodetypes="cccccc" />
    <path
       style="opacity:0.5;fill:none;fill-opacity:1;stroke:#ffffff;stroke-width:1;stroke-linecap:butt;stroke-linejoin:miter;stroke-miterlimit:4;stroke-dasharray:none;stroke-opacity:1"
       d="M 10.15625,282.39343 C 4.833392,282.39342 0.5,286.72682 0.5,292.04968 L 0.5,294.23718 L 8.3125,294.23718 L 13.875,284.51843 L 12.65625,282.39343 L 10.15625,282.39343 z M 29.375,282.39343 L 28.15625,284.51843 L 33.71875,294.23718 L 44.875,294.23718 L 50.4375,284.51843 L 49.21875,282.39343 L 29.375,282.39343 z M 65.90625,282.39343 L 64.6875,284.51843 L 70.28125,294.23718 L 81.40625,294.23718 L 87,284.51843 L 85.78125,282.39343 L 65.90625,282.39343 z M 102.46875,282.39343 L 101.25,284.51843 L 106.8125,294.23718 L 117.96875,294.23718 L 123.53125,284.51843 L 122.3125,282.39343 L 102.46875,282.39343 z M 139.03125,282.39343 L 137.8125,284.51843 L 143.375,294.23718 L 154.5,294.23718 L 160.09375,284.51843 L 158.875,282.39343 L 139.03125,282.39343 z M 175.5625,282.39343 L 174.34375,284.51843 L 179.9375,294.23718 L 191.0625,294.23718 L 196.625,284.51843 L 195.40625,282.39343 L 175.5625,282.39343 z M 212.125,282.39343 L 210.90625,284.51843 L 216.46875,294.23718 L 227.625,294.23718 L 233.1875,284.51843 L 231.96875,282.39343 L 212.125,282.39343 z M 15.4375,285.76843 L 9.875,295.48718 L 15.4375,305.17468 L 26.59375,305.17468 L 32.15625,295.48718 L 26.59375,285.76843 L 15.4375,285.76843 z M 52,285.76843 L 46.40625,295.48718 L 52,305.17468 L 63.125,305.17468 L 68.71875,295.48718 L 63.125,285.76843 L 52,285.76843 z M 88.53125,285.76843 L 82.96875,295.48718 L 88.53125,305.17468 L 99.6875,305.17468 L 105.25,295.48718 L 99.6875,285.76843 L 88.53125,285.76843 z M 125.09375,285.76843 L 119.53125,295.48718 L 125.09375,305.17468 L 136.25,305.17468 L 141.8125,295.48718 L 136.25,285.76843 L 125.09375,285.76843 z M 161.65625,285.76843 L 156.0625,295.48718 L 161.65625,305.17468 L 172.78125,305.17468 L 178.375,295.48718 L 172.78125,285.76843 L 161.65625,285.76843 z M 198.1875,285.76843 L 192.625,295.48718 L 198.1875,305.17468 L 209.34375,305.17468 L 214.90625,295.48718 L 209.34375,285.76843 L 198.1875,285.76843 z M 0.5,296.29968 L 0.5,315.70593 L 8.3125,315.70593 L 13.875,306.01843 L 8.3125,296.29968 L 0.5,296.29968 z M 33.71875,296.29968 L 28.15625,306.01843 L 33.71875,315.70593 L 44.875,315.70593 L 50.4375,306.01843 L 44.875,296.29968 L 33.71875,296.29968 z M 70.28125,296.29968 L 64.6875,306.01843 L 70.28125,315.70593 L 81.40625,315.70593 L 87,306.01843 L 81.40625,296.29968 L 70.28125,296.29968 z M 106.8125,296.29968 L 101.25,306.01843 L 106.8125,315.70593 L 117.96875,315.70593 L 123.53125,306.01843 L 117.96875,296.29968 L 106.8125,296.29968 z M 143.375,296.29968 L 137.8125,306.01843 L 143.375,315.70593 L 154.5,315.70593 L 160.09375,306.01843 L 154.5,296.29968 L 143.375,296.29968 z M 15.4375,306.83093 L 9.875,316.54968 L 12.9375,321.86218 L 29.09375,321.86218 L 32.15625,316.54968 L 26.59375,306.83093 L 15.4375,306.83093 z M 52,306.83093 L 46.40625,316.54968 L 49.46875,321.86218 L 65.65625,321.86218 L 68.71875,316.54968 L 63.125,306.83093 L 52,306.83093 z M 88.53125,306.83093 L 82.96875,316.54968 L 86.03125,321.86218 L 102.1875,321.86218 L 105.25,316.54968 L 99.6875,306.83093 L 88.53125,306.83093 z"
       id="path3632" />
  </g>
  <g
     inkscape:groupmode="layer"
     id="layer4"
     inkscape:label="Heading 3">
    <path
       style="fill:url(#linearGradient3487);fill-opacity:1;stroke:none;stroke-width:7;stroke-linecap:butt;stroke-linejoin:miter;stroke-miterlimit:4;stroke-dasharray:none;stroke-opacity:1"
       d="M 9.65625,192.36215 C 4.333393,192.36215 0,196.75214 0,202.14452 L 0,232.36215 L 600,232.36215 L 600,192.36215 L 9.65625,192.36215 z"
       id="path3403"
       sodipodi:nodetypes="cccccc" />
    <path
       style="opacity:0.5;fill:#ffffff;fill-opacity:1;stroke:none;stroke-width:1;stroke-linecap:butt;stroke-linejoin:miter;stroke-miterlimit:4;stroke-dasharray:none;stroke-opacity:1"
       d="M 0.51253,201.12847 L 0.51253,202.53472 L 209.20003,202.53472 L 210.23128,201.12847 L 0.51253,201.12847 z"
       id="path3475" />
    <path
       style="opacity:0.5;fill:#ffffff;fill-opacity:1;stroke:none;stroke-width:1;stroke-linecap:butt;stroke-linejoin:miter;stroke-miterlimit:4;stroke-dasharray:none;stroke-opacity:1"
       d="M 0.51253,205.37847 L 0.51253,206.78472 L 206.01253,206.78472 L 207.07503,205.37847 L 0.51253,205.37847 z"
       id="path3473" />
    <path
       style="opacity:0.5;fill:#ffffff;fill-opacity:1;stroke:none;stroke-width:1;stroke-linecap:butt;stroke-linejoin:miter;stroke-miterlimit:4;stroke-dasharray:none;stroke-opacity:1"
       d="M 0.51253,209.62847 L 0.51253,211.06597 L 52.88753,211.06597 L 53.98128,209.62847 L 0.51253,209.62847 z"
       id="path3471" />
    <path
       style="opacity:0.5;fill:#ffffff;fill-opacity:1;stroke:none;stroke-width:1;stroke-linecap:butt;stroke-linejoin:miter;stroke-miterlimit:4;stroke-dasharray:none;stroke-opacity:1"
       d="M 0.51253,213.90972 L 0.51253,215.31597 L 49.73128,215.31597 L 50.76253,213.90972 L 0.51253,213.90972 z"
       id="path3467" />
    <path
       style="opacity:0.5;fill:#ffffff;fill-opacity:1;stroke:none;stroke-width:1;stroke-linecap:butt;stroke-linejoin:miter;stroke-miterlimit:4;stroke-dasharray:none;stroke-opacity:1"
       d="M 0.51253,218.15972 L 0.51253,219.56597 L 46.54378,219.56597 L 47.60628,218.15972 L 0.51253,218.15972 z"
       id="path3463" />
    <path
       style="opacity:0.5;fill:#ffffff;fill-opacity:1;stroke:none;stroke-width:1;stroke-linecap:butt;stroke-linejoin:miter;stroke-miterlimit:4;stroke-dasharray:none;stroke-opacity:1"
       d="M 0.51253,222.44097 L 0.51253,223.84722 L 43.35628,223.84722 L 44.41878,222.44097 L 0.51253,222.44097 z"
       id="path3459" />
    <path
       style="opacity:0.5;fill:#ffffff;fill-opacity:1;stroke:none;stroke-width:1;stroke-linecap:butt;stroke-linejoin:miter;stroke-miterlimit:4;stroke-dasharray:none;stroke-opacity:1"
       d="M 0.51253,226.69097 L 0.51253,228.09722 L 40.20003,228.09722 L 41.23128,226.69097 L 0.51253,226.69097 z"
       id="path3455" />
    <path
       style="opacity:0.5;fill:#ffffff;fill-opacity:1;stroke:none;stroke-width:1;stroke-linecap:butt;stroke-linejoin:miter;stroke-miterlimit:4;stroke-dasharray:none;stroke-opacity:1"
       d="M 0.51253,230.94097 L 0.51253,232.34722 L 37.01253,232.34722 L 38.07503,230.94097 L 0.51253,230.94097 z"
       id="path3451" />
  </g>
  <g
     inkscape:groupmode="layer"
     id="layer3"
     inkscape:label="Heading 2">
    <path
       style="fill:url(#linearGradient3493);fill-opacity:1;stroke:none;stroke-width:7;stroke-linecap:butt;stroke-linejoin:miter;stroke-miterlimit:4;stroke-dasharray:none;stroke-opacity:1"
       d="M 9.65625,102.36221 C 4.333393,102.36221 0,106.7522 0,112.14458 L 0,142.36221 L 600,142.36221 L 600,102.36221 L 9.65625,102.36221 z"
       id="path3291"
       sodipodi:nodetypes="cccccc" />
    <path
       style="opacity:0.5;fill:#ffffff;fill-opacity:1;stroke:none;stroke-width:1;stroke-linecap:butt;stroke-linejoin:miter;stroke-miterlimit:4;stroke-dasharray:none;stroke-opacity:1"
       d="M 78.09383,107.75537 C 77.52579,107.79419 76.99728,108.15534 76.76194,108.67672 C 73.86626,108.67672 57.970587,108.67672 55.074906,108.67672 C 53.339173,110.42574 51.597988,112.16951 49.860175,113.91652 C 47.329708,113.93283 30.768371,113.88363 28.279553,113.94159 C 26.552074,115.6832 24.819366,117.41977 23.089892,119.15945 C 15.570733,119.15945 8.051575,119.15945 0.532416,119.15945 C 0.621301,119.64615 0.227689,120.61535 1.033833,120.38479 C 8.385853,120.38479 15.737872,120.38479 23.089892,120.38479 C 24.819333,122.12347 26.552194,123.85884 28.279553,125.59952 C 31.172285,125.62049 59.754402,125.55762 62.61175,125.63087 C 63.087035,126.71086 64.765783,126.83368 65.38208,125.82203 C 66.09223,124.85584 65.34237,123.31516 64.137937,123.30554 C 63.440586,123.25346 62.774236,123.74276 62.558475,124.39926 C 59.840379,124.39926 31.489663,124.39926 28.771567,124.39926 C 27.240158,122.85218 25.708748,121.3051 24.177339,119.75802 C 25.708748,118.2193 27.240158,116.68057 28.771567,115.14186 C 38.467709,115.14186 75.28885,115.14186 84.98498,115.14186 C 86.72281,116.88991 88.4639,118.63481 90.19972,120.38479 C 95.91304,120.4039 101.55647,120.35312 107.25728,120.35972 C 111.48589,120.41822 115.82315,120.36808 120.09354,120.38479 C 123.30052,120.38479 142.16245,120.38479 145.36943,120.38479 C 147.09887,122.12347 148.83173,123.85884 150.55909,125.59952 C 153.45477,125.59952 172.70229,125.59952 175.59797,125.59952 C 176.05045,126.7077 177.7597,126.84385 178.38084,125.82203 C 179.09078,124.85705 178.34073,123.31536 177.13669,123.30554 C 176.43954,123.25398 175.76974,123.74242 175.55723,124.39926 C 172.83809,124.39926 153.76711,124.39926 151.04797,124.39926 C 149.53432,122.87725 148.02067,121.35524 146.50702,119.83324 C 148.0541,118.26944 149.60118,116.70565 151.14826,115.14186 C 159.67957,115.14595 168.15906,115.09822 176.70483,115.11679 C 181.31159,115.11679 185.91836,115.11679 190.52512,115.11679 C 192.26192,116.86482 194.00185,118.60983 195.73672,120.35972 C 198.63111,120.3807 226.67963,120.31782 229.54172,120.39106 C 230.01515,121.47118 231.69596,121.5889 232.30891,120.58223 C 233.01894,119.61836 232.26998,118.07392 231.06478,118.06261 C 230.36373,118.00953 229.69898,118.50747 229.48531,119.15945 C 226.76721,119.15945 198.94683,119.15945 196.22873,119.15945 C 194.49908,117.41158 192.7676,115.66545 191.03907,113.91652 C 184.73063,113.91652 178.42218,113.91652 172.11373,113.91652 C 173.44562,112.57001 174.77751,111.2235 176.1094,109.87698 C 178.82382,109.89797 205.11197,109.83507 207.78752,109.90832 C 208.12344,110.99598 209.66102,111.34726 210.41682,110.48495 C 211.27654,109.67242 210.84107,108.03637 209.67096,107.80237 C 208.94461,107.60066 208.12199,107.99045 207.81572,108.67672 C 204.92109,108.67672 178.51515,108.67672 175.62052,108.67672 C 173.88478,110.42574 172.1436,112.16951 170.40578,113.91652 C 163.95144,113.91478 157.4945,113.91044 151.07305,113.94159 C 150.38443,113.83985 150.08543,114.6769 149.58313,115.02555 C 148.21199,116.40352 146.84085,117.78148 145.46972,119.15945 C 135.25439,119.15945 109.38412,119.15945 99.1688,119.15945 C 96.39326,119.21796 93.50906,119.16781 90.69173,119.18453 C 89.35253,117.82861 88.01333,116.4727 86.67413,115.11679 C 90.73456,115.11679 109.25452,115.11679 113.31494,115.11679 C 115.04335,113.36878 116.77497,111.62383 118.5046,109.87698 C 121.2227,109.87698 139.19079,109.87698 141.90889,109.87698 C 142.21496,110.94632 143.7098,111.35178 144.49118,110.54136 C 145.38717,109.77743 145.04112,108.11734 143.88008,107.82118 C 143.13707,107.58142 142.26452,107.95968 141.94962,108.67672 C 139.05394,108.67672 120.90827,108.67672 118.01259,108.67672 C 116.27685,110.42574 114.53567,112.16951 112.79785,113.91652 C 102.08507,113.90062 63.828262,113.95985 53.113114,113.94159 C 52.75083,113.84728 51.488005,114.12905 51.690316,113.79895 C 52.982518,112.49163 54.27472,111.1843 55.566921,109.87698 C 58.280306,109.89797 74.05611,109.83506 76.73061,109.90832 C 77.06146,110.98692 78.59779,111.34582 79.35051,110.49435 C 80.19585,109.71228 79.82372,108.11159 78.6924,107.82118 C 78.49885,107.7652 78.29659,107.74176 78.09383,107.75537 z"
       id="rect3301"
       sodipodi:nodetypes="ccccccccccccccccccccccccccccccccccccccccccccccccccccccccccccccccccsc" />
  </g>
  <g
     inkscape:label="Heading 1"
     inkscape:groupmode="layer"
     id="layer1"
     style="display:inline">
    <path
       style="fill:url(#linearGradient3497);fill-opacity:1;stroke:none;stroke-width:7;stroke-linecap:butt;stroke-linejoin:miter;stroke-miterlimit:4;stroke-dasharray:none;stroke-opacity:1"
       d="M 9.65625,12.362183 C 4.333393,12.362183 0,16.696723 0,22.020998 L 0,52.362183 L 600,52.362183 L 600,12.362183 L 9.65625,12.362183 z"
       id="rect2383"
       sodipodi:nodetypes="cccccc" />
    <path
       style="opacity:0.75;fill:#ffffff;fill-opacity:1;stroke:none;stroke-width:0.62535065;stroke-linecap:butt;stroke-linejoin:miter;stroke-miterlimit:4;stroke-opacity:1"
       d="M 47.5,12.362183 C 58.992286,26.326874 76.41228,35.237192 95.90625,35.237183 C 104.6895,35.237183 113.03135,33.439593 120.625,30.174683 C 120.56872,31.263161 120.53125,32.353591 120.53125,33.455933 C 120.53125,39.863677 121.49335,46.039919 123.28125,51.862183 L 124.34375,51.862183 C 122.5293,46.050385 121.53125,39.866457 121.53125,33.455933 C 121.53125,32.200214 121.58226,30.943182 121.65625,29.705933 C 130.48168,25.72084 138.22915,19.742742 144.3125,12.362183 L 143.03125,12.362183 C 137.24159,19.20904 129.98982,24.775655 121.75,28.580933 C 122.19168,22.926558 123.38827,17.486769 125.25,12.362183 L 124.21875,12.362183 C 122.33496,17.63617 121.12389,23.232968 120.71875,29.049683 C 113.12194,32.389916 104.73302,34.237183 95.90625,34.237183 C 77.0107,34.237192 60.090061,25.741751 48.78125,12.362183 L 47.5,12.362183 z M 241.1875,12.362183 C 243.5842,18.943935 244.90625,26.050667 244.90625,33.455933 C 244.90625,34.699123 244.88516,35.918464 244.8125,37.143433 C 237.04983,40.642273 230.13284,45.682852 224.4375,51.862183 L 225.78125,51.862183 C 231.14304,46.21098 237.55679,41.573838 244.71875,38.268433 C 244.35465,42.96845 243.45432,47.518732 242.09375,51.862183 L 243.125,51.862183 C 244.50801,47.370609 245.41564,42.661359 245.75,37.799683 C 253.32729,34.469809 261.69466,32.612183 270.5,32.612183 C 288.10912,32.612174 304.00021,40.012835 315.25,51.862183 L 316.625,51.862183 C 305.1581,39.415194 288.72993,31.612175 270.5,31.612183 C 261.75104,31.612183 253.40897,33.429083 245.84375,36.674683 C 245.898,35.606862 245.90625,34.537173 245.90625,33.455933 C 245.90625,26.059415 244.60865,18.954987 242.25,12.362183 L 241.1875,12.362183 z M 307.03125,12.362183 C 318.4185,28.068158 336.90929,38.299693 357.78125,38.299683 C 378.65321,38.299682 397.1572,28.068156 408.5625,12.362183 L 407.34375,12.362183 C 396.09125,27.496585 378.07547,37.299683 357.78125,37.299683 C 337.48703,37.299692 319.48457,27.496588 308.25,12.362183 L 307.03125,12.362183 z M 8.59375,28.549683 C 5.847427,28.549683 3.153117,28.737439 0.5,29.080933 L 0.5,30.080933 C 3.146092,29.733768 5.852962,29.549683 8.59375,29.549683 C 27.680055,29.549673 44.76806,38.231037 56.09375,51.862183 L 57.34375,51.862183 C 45.838763,37.653624 28.270573,28.549674 8.59375,28.549683 z"
       id="path2411" />
  </g>
  <g
     inkscape:groupmode="layer"
     id="layer7"
     inkscape:label="Texts"
     style="display:none"
     sodipodi:insensitive="true">
    <text
       xml:space="preserve"
       style="font-size:24px;font-style:normal;font-weight:bold;fill:#ffffff;fill-opacity:1;stroke:none;stroke-width:1px;stroke-linecap:butt;stroke-linejoin:miter;stroke-opacity:1;display:inline;font-family:Verdana;-inkscape-font-specification:Verdana Bold"
       x="40"
       y="409.38171"
       id="text3743"><tspan
         sodipodi:role="line"
         id="tspan3745"
         x="40"
         y="409.38171">Hobbies</tspan></text>
    <text
       xml:space="preserve"
       style="font-size:24px;font-style:normal;font-weight:bold;fill:#ffffff;fill-opacity:1;stroke:none;stroke-width:1px;stroke-linecap:butt;stroke-linejoin:miter;stroke-opacity:1;display:inline;font-family:Verdana;-inkscape-font-specification:Verdana Bold"
       x="40"
       y="319.38171"
       id="text3480"><tspan
         sodipodi:role="line"
         id="tspan3482"
         x="40"
         y="319.38171">Formation</tspan></text>
    <text
       xml:space="preserve"
       style="font-size:24px;font-style:normal;font-weight:bold;fill:#ffffff;fill-opacity:1;stroke:none;stroke-width:1px;stroke-linecap:butt;stroke-linejoin:miter;stroke-opacity:1;font-family:Verdana;-inkscape-font-specification:Verdana Bold"
       x="40"
       y="229.38171"
       id="text3405"><tspan
         sodipodi:role="line"
         id="tspan3407"
         x="40"
         y="229.38171">Exprience professionnelle</tspan></text>
    <text
       xml:space="preserve"
       style="font-size:24px;font-style:normal;font-weight:bold;fill:#ffffff;fill-opacity:1;stroke:none;stroke-width:1px;stroke-linecap:butt;stroke-linejoin:miter;stroke-opacity:1;font-family:Verdana;-inkscape-font-specification:Verdana Bold"
       x="40"
       y="139.38171"
       id="text3384"><tspan
         sodipodi:role="line"
         id="tspan3386"
         x="40"
         y="139.38171">Comptences</tspan></text>
    <text
       id="text3388"
       y="49.381714"
       x="40"
       style="font-size:24px;font-style:normal;font-weight:bold;fill:#ffffff;fill-opacity:1;stroke:none;stroke-width:1px;stroke-linecap:butt;stroke-linejoin:miter;stroke-opacity:1;display:inline;font-family:Verdana;-inkscape-font-specification:Verdana Bold"
       xml:space="preserve"><tspan
         y="49.381714"
         x="40"
         id="tspan3390"
         sodipodi:role="line">Qualits personnelles</tspan></text>
  </g>
</svg>
